<?xml version="1.0" encoding="utf-8"?>
<svg viewBox="217.1 71 177 150" xmlns="http://www.w3.org/2000/svg">
  <defs>
    <clipPath id="clippath0" transform="">
      <path d="M 0 793.701 L 595.276 793.701 L 595.276 0 L 0 0 Z" style="fill: none; clip-rule: nonzero;"/>
    </clipPath>
  </defs>
  <g style="clip-path: url('#clippath0');" transform="matrix(1.074937, 0, 0, -1.074937, -14.762218, 551.827515)">
    <g transform="translate(350.9223 402.3568)">
      <path d="M 0 0 C 0.036 4.011 -1.69 6.999 -5.181 8.975 L -47.358 33.405 C -50.869 35.411 -54.38 35.415 -57.929 33.344 L -100.016 9.049 C -103.528 7.021 -105.251 3.975 -105.319 -0.055 L -105.242 -48.79 C -105.264 -52.791 -103.5 -55.76 -100.061 -57.766 L -57.896 -82.202 C -54.348 -84.237 -50.872 -84.189 -47.361 -82.162 L -5.275 -57.866 C -1.715 -55.812 0.028 -52.753 0.064 -48.742 Z M 8.22 -52.801 C 8.124 -57.573 6.088 -61.047 2.006 -63.403 L -46.695 -91.518 C -50.758 -93.865 -54.713 -93.849 -58.842 -91.516 L -107.557 -63.414 C -111.583 -61.045 -113.606 -57.541 -113.673 -52.819 L -113.658 3.436 C -113.572 8.107 -111.607 11.541 -107.544 13.886 L -58.842 42.002 C -54.761 44.358 -50.733 44.383 -46.595 42.151 L 2.073 14.001 C 6.134 11.584 8.156 8.08 8.19 3.406 Z" style="fill: rgb(59, 99, 161); fill-opacity: 1;"/>
    </g>
  </g>
  <g style="clip-path: url('#clippath0');" transform="matrix(1.074002, -0.044843, -0.044843, -1.074002, 2.379694, 564.857178)">
    <g transform="translate(292.1836 381.6325)">
      <path d="M 0 0 L 0.512 10.811 L -19.246 0.39 L -19.395 -4.699 L -28.64 -9.556 L -28.28 0.64 L 0.945 16.111 L 1.462 26.948 L -18.355 16.497 L -18.407 11.377 L -28.036 6.418 L -27.722 16.902 L 1.447 32.908 L 2.043 43.723 L -36.996 23.133 L -38.735 -21.011" style="fill: rgb(59, 99, 161); fill-opacity: 1;"/>
    </g>
  </g>
  <g style="clip-path: url('#clippath0');" transform="matrix(1.074002, -0.044843, -0.044843, -1.074002, 2.379694, 564.857178)">
    <g transform="translate(306.1928 424.8499)">
      <path d="M 0 0 L -0.402 -10.983 L 27.459 -28.622 L 26.312 -61.515 L 35.541 -67.232 L 37.175 -23.208" style="fill: rgb(89, 158, 18); fill-opacity: 1;"/>
    </g>
  </g>
  <g style="clip-path: url('#clippath0');" transform="matrix(1.074002, -0.044843, -0.044843, -1.074002, 2.379694, 564.857178)">
    <g transform="translate(258.9546 350.3203)">
      <path d="M 0 0 L 37.486 -23.597 L 76.525 -3.008 L 67.248 2.722 L 37.447 -12.289 L 28.713 -6.726 L 38.198 -1.54 L 42.481 -4.397 L 62.333 6.073 L 53.063 11.666 L 23.729 -3.637 L 15.145 1.799 L 24.43 6.734 L 28.68 3.903 L 48.546 14.381 L 39.308 20.154" style="fill: rgb(255, 156, 0); fill-opacity: 1;"/>
    </g>
  </g>
</svg>