<?xml version="1.0" encoding="utf-8"?>
<svg data-name="Layer 1" width="733.86247" height="702.19479" viewBox="0 0 177 150" xmlns="http://www.w3.org/2000/svg" xmlns:bx="https://boxy-svg.com">
  <title>cloud_files</title>
  <path d="M 65.532 110.815 C 65.532 126.635 52.699 139.459 36.87 139.459 C 21.037 139.459 8.205 126.635 8.205 110.815 C 8.205 94.995 21.037 82.171 36.87 82.171 C 52.699 82.171 65.532 94.995 65.532 110.815 Z M 52.093 66.826 C 52.093 76.937 43.892 85.133 33.774 85.133 C 23.656 85.133 15.453 76.937 15.453 66.826 C 15.453 56.714 23.656 48.518 33.774 48.518 C 43.892 48.518 52.093 56.714 52.093 66.826 Z M 119.504 47.976 C 119.504 69.136 102.34 86.289 81.165 86.289 C 59.988 86.289 42.824 69.136 42.824 47.976 C 42.824 26.815 59.988 9.662 81.165 9.662 C 102.34 9.662 119.504 26.815 119.504 47.976 Z M 165.696 95.174 C 165.696 119.773 145.739 139.716 121.123 139.716 C 96.506 139.716 76.55 119.773 76.55 95.174 C 76.55 70.574 96.506 50.633 121.123 50.633 C 145.739 50.633 165.696 70.574 165.696 95.174 Z M 33.599 70.682 L 126.718 70.682 L 126.718 139.192 L 33.599 139.192 L 33.599 70.682 Z" style="fill: rgb(170, 199, 240);"/>
  <path d="M 68.973 110.81 C 68.973 125.655 56.931 137.689 42.077 137.689 C 27.221 137.689 15.179 125.655 15.179 110.81 C 15.179 95.965 27.221 83.932 42.077 83.932 C 56.931 83.932 68.973 95.965 68.973 110.81 Z M 56.362 69.533 C 56.362 79.02 48.666 86.711 39.172 86.711 C 29.677 86.711 21.98 79.02 21.98 69.533 C 21.98 60.044 29.677 52.353 39.172 52.353 C 48.666 52.353 56.362 60.044 56.362 69.533 Z M 119.618 51.844 C 119.618 71.7 103.511 87.796 83.642 87.796 C 63.77 87.796 47.663 71.7 47.663 51.844 C 47.663 31.988 63.77 15.892 83.642 15.892 C 103.511 15.892 119.618 31.988 119.618 51.844 Z M 162.963 96.133 C 162.963 119.216 144.236 137.93 121.137 137.93 C 98.037 137.93 79.311 119.216 79.311 96.133 C 79.311 73.05 98.037 54.338 121.137 54.338 C 144.236 54.338 162.963 73.05 162.963 96.133 Z M 39.008 73.151 L 126.387 73.151 L 126.387 137.438 L 39.008 137.438 L 39.008 73.151 Z" style="fill: rgb(74, 196, 245);"/>
  <path d="M 63.969 55.253 H 97.228 L 97.228 40.253 L 137.228 60.253 L 97.228 80.253 L 97.228 65.253 H 63.969 V 55.253 Z" style="fill: rgb(91, 129, 167);" transform="matrix(0.019576, 0.999808, -0.999808, 0.019576, 117.049431, -4.643032)" bx:shape="arrow 63.969 40.253 73.259 40 10 40 0 1@bb74e4ff"/>
  <path d="M 63.969 55.253 H 97.228 L 97.228 40.253 L 137.228 60.253 L 97.228 80.253 L 97.228 65.253 H 63.969 V 55.253 Z" style="fill: rgb(91, 129, 167);" transform="matrix(0.019576, -0.999808, -0.999808, -0.019576, 165.714561, 197.268728)" bx:shape="arrow 63.969 40.253 73.259 40 10 40 0 1@bb74e4ff"/>
</svg>