<?xml version="1.0" encoding="utf-8"?>
<svg viewBox="-172.33 113.549 858.017 316.789" xmlns="http://www.w3.org/2000/svg">
  <rect x="-172.33" y="113.549" width="858.017" height="316.789" style="stroke: rgb(0, 0, 0);"/>
  <g transform="matrix(0.2889759838581085, 0, 0, 0.2889759838581085, 95.6125717163086, 212.23715209960938)" style="">
    <path d="M 523.845 122.229 C 523.944 111.24 519.215 103.053 509.649 97.64 L 394.093 30.713 C 384.475 25.216 374.855 25.207 365.13 30.879 L 249.826 97.447 C 240.204 103.002 235.485 111.348 235.298 122.389 L 235.512 255.91 C 235.455 266.874 240.286 275.008 249.709 280.501 L 365.233 347.447 C 374.954 353.021 384.476 352.891 394.096 347.337 L 509.398 280.769 C 519.152 275.139 523.927 266.76 524.025 255.77 L 523.845 122.229 Z M 546.371 266.89 C 546.108 279.965 540.532 289.481 529.348 295.938 L 395.922 372.969 C 384.789 379.399 373.954 379.356 362.641 372.964 L 229.173 295.978 C 218.141 289.487 212.599 279.886 212.416 266.949 L 212.451 112.825 C 212.685 100.028 218.071 90.62 229.202 84.194 L 362.628 7.159 C 373.811 0.706 384.845 0.635 396.182 6.751 L 529.522 83.868 C 540.649 90.492 546.19 100.091 546.284 112.897 L 546.371 266.89 Z" style="stroke-miterlimit: 1; paint-order: stroke; stroke-width: 6.11966px; fill: rgb(66, 109, 169);" transform="matrix(1, 0.000034, -0.000034, 1, 0.00646, -0.012899)">
      <title>hexágono</title>
    </path>
    <path d="M 259.719 180.789 L 285.262 195.847 L 285.262 134.649 L 273.121 127.781 L 273.166 99.171 L 297.415 113.075 L 297.554 203.672 L 323.155 218.776 L 323.155 157.393 L 310.815 150.722 L 311.104 121.051 L 336.111 135.211 L 337.619 226.355 L 363.063 241.623 L 363.063 120.701 L 258.309 60.068" style="stroke-miterlimit: 1; paint-order: stroke; stroke-width: 6.11966px; fill: rgb(66, 109, 169);" transform="matrix(-0.504175, -0.863601, 0.863601, -0.504175, 337.055785, 495.206909)">
      <title>E</title>
    </path>
    <path d="M 571.795 115.626 L 545.694 100.615 L 467.34 145.587 L 389.093 100.767 L 363.445 115.825 L 468.04 176.051" style="stroke-miterlimit: 1; paint-order: stroke; stroke-width: 6.11966px; fill: rgb(100, 167, 11);" transform="matrix(-0.504175, -0.863601, 0.863601, -0.504175, 583.91784, 611.91434)">
      <title>&gt;</title>
    </path>
    <path d="M 432.44 178.192 L 327.345 238.874 L 327.345 359.794 L 353.086 344.635 L 354.799 253.233 L 379.444 239.177 L 379.887 268.791 L 367.49 275.518 L 367.49 337.009 L 392.89 321.693 L 393.3 231.047 L 417.442 217.192 L 417.536 246.002 L 405.243 252.683 L 405.243 314.218 L 431.04 299.207" style="stroke-miterlimit: 1; paint-order: stroke; stroke-width: 6.11966px; fill: rgb(255, 163, 0);" transform="matrix(-0.504175, -0.863601, 0.863601, -0.504175, 339.122155, 732.6883)">
      <title>E</title>
    </path>
  </g>
  <path d="M 88.997 270.86 L 73.001 270.86 L 69.366 280.62 L 68.043 280.62 L 80.27 247.954 L 81.75 247.954 L 93.978 280.62 L 92.654 280.62 L 88.997 270.86 Z M 73.449 269.649 L 88.549 269.649 L 81.009 249.412 L 73.449 269.649 Z M 107.851 257.219 L 106.281 257.085 C 104.218 257.085 102.49 257.755 101.099 259.094 C 99.709 260.432 98.796 262.305 98.363 264.714 L 98.363 280.62 L 97.15 280.62 L 97.15 256.345 L 98.363 256.345 L 98.363 261.393 C 99.02 259.702 100.008 258.364 101.323 257.377 C 102.639 256.39 104.294 255.896 106.281 255.896 C 106.985 255.896 107.553 255.979 107.987 256.143 L 107.851 257.219 Z M 114.909 249.793 L 114.909 256.345 L 120.429 256.345 L 120.429 257.579 L 114.909 257.579 L 114.909 274.81 C 114.909 276.529 115.19 277.8 115.751 278.623 C 116.313 279.446 117.251 279.857 118.566 279.857 C 119.224 279.857 120.026 279.789 120.968 279.655 L 121.169 280.8 C 120.676 280.978 119.831 281.068 118.634 281.068 C 116.869 281.068 115.605 280.578 114.843 279.599 C 114.08 278.618 113.69 277.075 113.676 274.967 L 113.676 257.579 L 109.189 257.579 L 109.189 256.345 L 113.676 256.345 L 113.676 249.793 L 114.909 249.793 Z M 134.016 281.068 C 132.057 281.068 130.259 280.542 128.622 279.486 C 126.984 278.432 125.701 276.986 124.774 275.145 C 123.846 273.306 123.383 271.264 123.383 269.021 L 123.383 268.011 C 123.383 265.767 123.832 263.711 124.728 261.841 C 125.627 259.972 126.859 258.515 128.431 257.466 C 130.001 256.42 131.713 255.896 133.569 255.896 C 136.275 255.896 138.49 256.861 140.209 258.79 C 141.93 260.72 142.789 263.256 142.789 266.397 L 142.789 267.674 L 124.594 267.674 L 124.594 268.998 C 124.594 270.972 125.009 272.801 125.841 274.484 C 126.67 276.167 127.813 277.486 129.272 278.444 C 130.731 279.401 132.312 279.879 134.016 279.879 C 135.648 279.879 137.035 279.607 138.179 279.06 C 139.323 278.515 140.336 277.673 141.218 276.536 L 142.071 277.142 C 140.261 279.759 137.577 281.068 134.016 281.068 Z M 133.569 257.108 C 131.206 257.108 129.201 257.987 127.555 259.744 C 125.91 261.501 124.945 263.741 124.661 266.463 L 141.578 266.463 L 141.578 266.171 C 141.578 264.527 141.229 262.996 140.535 261.583 C 139.84 260.17 138.881 259.071 137.663 258.286 C 136.444 257.5 135.078 257.108 133.569 257.108 Z" style="fill: rgb(66, 109, 169); white-space: pre;"/>
  <path d="M 285.462 273.098 C 285.462 271.946 285.055 271.048 284.239 270.405 C 283.424 269.762 281.992 269.097 279.943 268.409 C 277.894 267.72 276.219 267.055 274.917 266.412 C 270.685 264.332 268.569 261.476 268.569 257.841 C 268.569 256.032 269.096 254.435 270.15 253.052 C 271.205 251.669 272.697 250.591 274.627 249.821 C 276.556 249.05 278.724 248.666 281.132 248.666 C 283.48 248.666 285.586 249.084 287.448 249.922 C 289.31 250.76 290.756 251.952 291.789 253.501 C 292.821 255.049 293.336 256.817 293.336 258.806 L 285.485 258.806 C 285.485 257.475 285.077 256.443 284.261 255.71 C 283.446 254.977 282.344 254.611 280.952 254.611 C 279.547 254.611 278.436 254.921 277.622 255.543 C 276.806 256.163 276.399 256.951 276.399 257.908 C 276.399 258.746 276.847 259.505 277.744 260.186 C 278.642 260.866 280.22 261.57 282.479 262.295 C 284.736 263.02 286.592 263.802 288.042 264.64 C 291.572 266.674 293.336 269.477 293.336 273.052 C 293.336 275.91 292.26 278.153 290.107 279.783 C 287.952 281.413 284.998 282.228 281.245 282.228 C 278.597 282.228 276.2 281.754 274.054 280.805 C 271.908 279.855 270.292 278.554 269.209 276.901 C 268.123 275.247 267.581 273.345 267.581 271.192 L 275.478 271.192 C 275.478 272.941 275.931 274.231 276.836 275.06 C 277.741 275.89 279.211 276.306 281.245 276.306 C 282.546 276.306 283.574 276.026 284.33 275.464 C 285.084 274.904 285.462 274.115 285.462 273.098 Z M 296.069 269.418 C 296.069 266.996 296.541 264.838 297.483 262.946 C 298.425 261.054 299.779 259.598 301.544 258.582 C 303.309 257.564 305.38 257.056 307.759 257.056 C 311.393 257.056 314.257 258.182 316.351 260.433 C 318.445 262.684 319.492 265.747 319.492 269.62 L 319.492 269.889 C 319.492 273.673 318.441 276.676 316.34 278.897 C 314.238 281.118 311.393 282.228 307.804 282.228 C 304.349 282.228 301.574 281.193 299.479 279.122 C 297.386 277.051 296.257 274.243 296.093 270.696 L 296.069 269.418 Z M 303.629 269.889 C 303.629 272.133 303.982 273.777 304.685 274.825 C 305.388 275.872 306.428 276.396 307.804 276.396 C 310.495 276.396 311.872 274.324 311.93 270.182 L 311.93 269.418 C 311.93 265.066 310.54 262.889 307.759 262.889 C 305.231 262.889 303.862 264.766 303.653 268.52 L 303.629 269.889 Z M 324.499 281.78 L 324.499 262.756 L 320.977 262.756 L 320.977 257.506 L 324.499 257.506 L 324.499 255.576 C 324.499 252.809 325.314 250.662 326.945 249.137 C 328.576 247.611 330.863 246.849 333.81 246.849 C 334.886 246.849 336.068 247.006 337.354 247.32 L 337.377 252.884 C 336.913 252.749 336.293 252.681 335.516 252.681 C 333.226 252.681 332.083 253.669 332.083 255.643 L 332.083 257.506 L 336.816 257.506 L 336.816 262.756 L 332.083 262.756 L 332.083 281.78 L 324.499 281.78 Z M 348.278 251.47 L 348.278 257.506 L 352.27 257.506 L 352.27 262.756 L 348.278 262.756 L 348.278 273.86 C 348.278 274.773 348.442 275.408 348.771 275.767 C 349.099 276.126 349.75 276.306 350.722 276.306 C 351.47 276.306 352.098 276.261 352.607 276.171 L 352.607 281.577 C 351.246 282.011 349.825 282.228 348.344 282.228 C 345.742 282.228 343.82 281.616 342.579 280.389 C 341.337 279.163 340.716 277.301 340.716 274.802 L 340.716 262.756 L 337.62 262.756 L 337.62 257.506 L 340.716 257.506 L 340.716 251.47 L 348.278 251.47 Z M 376.208 271.819 L 378.653 257.506 L 385.9 257.506 L 380.179 281.78 L 373.785 281.78 L 369.77 267.376 L 365.731 281.78 L 359.337 281.78 L 353.616 257.506 L 360.863 257.506 L 363.263 272.155 L 367.122 257.506 L 372.395 257.506 L 376.208 271.819 Z M 402.279 281.78 C 402.011 281.286 401.773 280.56 401.562 279.604 C 400.171 281.354 398.227 282.228 395.73 282.228 C 393.441 282.228 391.497 281.536 389.896 280.154 C 388.295 278.77 387.496 277.032 387.496 274.937 C 387.496 272.305 388.468 270.316 390.412 268.97 C 392.357 267.624 395.184 266.951 398.892 266.951 L 401.226 266.951 L 401.226 265.671 C 401.226 263.443 400.261 262.329 398.332 262.329 C 396.537 262.329 395.64 263.211 395.64 264.976 L 388.079 264.976 C 388.079 262.627 389.078 260.72 391.074 259.256 C 393.071 257.789 395.618 257.056 398.713 257.056 C 401.808 257.056 404.255 257.811 406.05 259.323 C 407.844 260.832 408.763 262.905 408.81 265.537 L 408.81 276.282 C 408.839 278.512 409.183 280.216 409.841 281.398 L 409.841 281.78 L 402.279 281.78 Z M 397.546 276.844 C 398.489 276.844 399.27 276.643 399.891 276.238 C 400.511 275.834 400.956 275.378 401.226 274.871 L 401.226 270.988 L 399.027 270.988 C 396.396 270.988 395.079 272.17 395.079 274.533 C 395.079 275.222 395.31 275.778 395.774 276.204 C 396.238 276.631 396.829 276.844 397.546 276.844 Z M 427.677 264.348 L 425.187 264.168 C 422.808 264.168 421.283 264.917 420.61 266.412 L 420.61 281.78 L 413.049 281.78 L 413.049 257.506 L 420.138 257.506 L 420.385 260.624 C 421.656 258.245 423.43 257.056 425.702 257.056 C 426.51 257.056 427.214 257.147 427.812 257.326 L 427.677 264.348 Z M 441.72 282.228 C 437.995 282.228 434.982 281.118 432.679 278.897 C 430.376 276.676 429.223 273.786 429.223 270.226 L 429.223 269.598 C 429.223 267.116 429.683 264.924 430.602 263.024 C 431.523 261.125 432.865 259.655 434.63 258.616 C 436.394 257.576 438.488 257.056 440.912 257.056 C 444.322 257.056 447.015 258.115 448.989 260.232 C 450.963 262.348 451.95 265.299 451.95 269.082 L 451.95 272.02 L 436.919 272.02 C 437.187 273.381 437.779 274.451 438.69 275.229 C 439.603 276.006 440.785 276.396 442.235 276.396 C 444.628 276.396 446.498 275.558 447.844 273.883 L 451.299 277.965 C 450.357 279.267 449.021 280.303 447.295 281.073 C 445.567 281.843 443.709 282.228 441.72 282.228 Z M 440.867 262.889 C 438.654 262.889 437.337 264.356 436.919 267.287 L 444.546 267.287 L 444.546 266.704 C 444.576 265.491 444.27 264.553 443.626 263.888 C 442.983 263.223 442.064 262.889 440.867 262.889 Z" style="fill: rgb(66, 109, 169); white-space: pre;"/>
</svg>