<?xml version="1.0" encoding="utf-8"?>
<svg viewBox="-169.6 114 851 315" xmlns="http://www.w3.org/2000/svg">
  <rect x="-172.33" y="113.549" width="858.017" height="316.789" style="stroke: rgb(0, 0, 0);"/>
  <g transform="matrix(0.288976, 0, 0, 0.288976, -20.000727, 144.152725)" style="">
    <path d="M 523.845 122.229 C 523.944 111.24 519.215 103.053 509.649 97.64 L 394.093 30.713 C 384.475 25.216 374.855 25.207 365.13 30.879 L 249.826 97.447 C 240.204 103.002 235.485 111.348 235.298 122.389 L 235.512 255.91 C 235.455 266.874 240.286 275.008 249.709 280.501 L 365.233 347.447 C 374.954 353.021 384.476 352.891 394.096 347.337 L 509.398 280.769 C 519.152 275.139 523.927 266.76 524.025 255.77 L 523.845 122.229 Z M 546.371 266.89 C 546.108 279.965 540.532 289.481 529.348 295.938 L 395.922 372.969 C 384.789 379.399 373.954 379.356 362.641 372.964 L 229.173 295.978 C 218.141 289.487 212.599 279.886 212.416 266.949 L 212.451 112.825 C 212.685 100.028 218.071 90.62 229.202 84.194 L 362.628 7.159 C 373.811 0.706 384.845 0.635 396.182 6.751 L 529.522 83.868 C 540.649 90.492 546.19 100.091 546.284 112.897 L 546.371 266.89 Z" style="stroke-miterlimit: 1; paint-order: stroke; stroke-width: 6.11966px; fill: rgb(66, 109, 169);" transform="matrix(1, 0.000034, -0.000034, 1, 0.00646, -0.012899)">
      <title>hexágono</title>
    </path>
    <path d="M 259.719 180.789 L 285.262 195.847 L 285.262 134.649 L 273.121 127.781 L 273.166 99.171 L 297.415 113.075 L 297.554 203.672 L 323.155 218.776 L 323.155 157.393 L 310.815 150.722 L 311.104 121.051 L 336.111 135.211 L 337.619 226.355 L 363.063 241.623 L 363.063 120.701 L 258.309 60.068" style="stroke-miterlimit: 1; paint-order: stroke; stroke-width: 6.11966px; fill: rgb(66, 109, 169);" transform="matrix(-0.504175, -0.863601, 0.863601, -0.504175, 337.055785, 495.206909)">
      <title>E</title>
    </path>
    <path d="M 571.795 115.626 L 545.694 100.615 L 467.34 145.587 L 389.093 100.767 L 363.445 115.825 L 468.04 176.051" style="stroke-miterlimit: 1; paint-order: stroke; stroke-width: 6.11966px; fill: rgb(100, 167, 11);" transform="matrix(-0.504175, -0.863601, 0.863601, -0.504175, 583.91784, 611.91434)">
      <title>&gt;</title>
    </path>
    <path d="M 432.44 178.192 L 327.345 238.874 L 327.345 359.794 L 353.086 344.635 L 354.799 253.233 L 379.444 239.177 L 379.887 268.791 L 367.49 275.518 L 367.49 337.009 L 392.89 321.693 L 393.3 231.047 L 417.442 217.192 L 417.536 246.002 L 405.243 252.683 L 405.243 314.218 L 431.04 299.207" style="stroke-miterlimit: 1; paint-order: stroke; stroke-width: 6.11966px; fill: rgb(255, 163, 0);" transform="matrix(-0.504175, -0.863601, 0.863601, -0.504175, 339.122155, 732.6883)">
      <title>E</title>
    </path>
  </g>
  <path d="M -26.616 202.776 L -42.612 202.776 L -46.247 212.536 L -47.57 212.536 L -35.343 179.87 L -33.863 179.87 L -21.635 212.536 L -22.959 212.536 L -26.616 202.776 Z M -42.164 201.565 L -27.064 201.565 L -34.604 181.328 L -42.164 201.565 Z M -7.762 189.135 L -9.332 189.001 C -11.395 189.001 -13.123 189.671 -14.514 191.01 C -15.904 192.348 -16.817 194.221 -17.25 196.63 L -17.25 212.536 L -18.463 212.536 L -18.463 188.261 L -17.25 188.261 L -17.25 193.309 C -16.593 191.618 -15.605 190.28 -14.29 189.293 C -12.974 188.306 -11.319 187.812 -9.332 187.812 C -8.628 187.812 -8.06 187.895 -7.626 188.059 L -7.762 189.135 Z M -0.704 181.709 L -0.704 188.261 L 4.816 188.261 L 4.816 189.495 L -0.704 189.495 L -0.704 206.726 C -0.704 208.445 -0.423 209.716 0.138 210.539 C 0.7 211.362 1.638 211.773 2.953 211.773 C 3.611 211.773 4.413 211.705 5.355 211.571 L 5.556 212.716 C 5.063 212.894 4.218 212.984 3.021 212.984 C 1.256 212.984 -0.008 212.494 -0.77 211.515 C -1.533 210.534 -1.923 208.991 -1.937 206.883 L -1.937 189.495 L -6.424 189.495 L -6.424 188.261 L -1.937 188.261 L -1.937 181.709 L -0.704 181.709 Z M 18.403 212.984 C 16.444 212.984 14.646 212.458 13.009 211.402 C 11.371 210.348 10.088 208.902 9.161 207.061 C 8.233 205.222 7.77 203.18 7.77 200.937 L 7.77 199.927 C 7.77 197.683 8.219 195.627 9.115 193.757 C 10.014 191.888 11.246 190.431 12.818 189.382 C 14.388 188.336 16.1 187.812 17.956 187.812 C 20.662 187.812 22.877 188.777 24.596 190.706 C 26.317 192.636 27.176 195.172 27.176 198.313 L 27.176 199.59 L 8.981 199.59 L 8.981 200.914 C 8.981 202.888 9.396 204.717 10.228 206.4 C 11.057 208.083 12.2 209.402 13.659 210.36 C 15.118 211.317 16.699 211.795 18.403 211.795 C 20.035 211.795 21.422 211.523 22.566 210.976 C 23.71 210.431 24.723 209.589 25.605 208.452 L 26.458 209.058 C 24.648 211.675 21.964 212.984 18.403 212.984 Z M 17.956 189.024 C 15.593 189.024 13.588 189.903 11.942 191.66 C 10.297 193.417 9.332 195.657 9.048 198.379 L 25.965 198.379 L 25.965 198.087 C 25.965 196.443 25.616 194.912 24.922 193.499 C 24.227 192.086 23.268 190.987 22.05 190.202 C 20.831 189.416 19.465 189.024 17.956 189.024 Z" style="fill: rgb(66, 109, 169); white-space: pre;"/>
  <path d="M 169.849 205.014 C 169.849 203.862 169.442 202.964 168.626 202.321 C 167.811 201.678 166.379 201.013 164.33 200.325 C 162.281 199.636 160.606 198.971 159.304 198.328 C 155.072 196.248 152.956 193.392 152.956 189.757 C 152.956 187.948 153.483 186.351 154.537 184.968 C 155.592 183.585 157.084 182.507 159.014 181.737 C 160.943 180.966 163.111 180.582 165.519 180.582 C 167.867 180.582 169.973 181 171.835 181.838 C 173.697 182.676 175.143 183.868 176.176 185.417 C 177.208 186.965 177.723 188.733 177.723 190.722 L 169.872 190.722 C 169.872 189.391 169.464 188.359 168.648 187.626 C 167.833 186.893 166.731 186.527 165.339 186.527 C 163.934 186.527 162.823 186.837 162.009 187.459 C 161.193 188.079 160.786 188.867 160.786 189.824 C 160.786 190.662 161.234 191.421 162.131 192.102 C 163.029 192.782 164.607 193.486 166.866 194.211 C 169.123 194.936 170.979 195.718 172.429 196.556 C 175.959 198.59 177.723 201.393 177.723 204.968 C 177.723 207.826 176.647 210.069 174.494 211.699 C 172.339 213.329 169.385 214.144 165.632 214.144 C 162.984 214.144 160.587 213.67 158.441 212.721 C 156.295 211.771 154.679 210.47 153.596 208.817 C 152.51 207.163 151.968 205.261 151.968 203.108 L 159.865 203.108 C 159.865 204.857 160.318 206.147 161.223 206.976 C 162.128 207.806 163.598 208.222 165.632 208.222 C 166.933 208.222 167.961 207.942 168.717 207.38 C 169.471 206.82 169.849 206.031 169.849 205.014 Z M 180.456 201.334 C 180.456 198.912 180.928 196.754 181.87 194.862 C 182.812 192.97 184.166 191.514 185.931 190.498 C 187.696 189.48 189.767 188.972 192.146 188.972 C 195.78 188.972 198.644 190.098 200.738 192.349 C 202.832 194.6 203.879 197.663 203.879 201.536 L 203.879 201.805 C 203.879 205.589 202.828 208.592 200.727 210.813 C 198.625 213.034 195.78 214.144 192.191 214.144 C 188.736 214.144 185.961 213.109 183.866 211.038 C 181.773 208.967 180.644 206.159 180.48 202.612 L 180.456 201.334 Z M 188.016 201.805 C 188.016 204.049 188.369 205.693 189.072 206.741 C 189.775 207.788 190.815 208.312 192.191 208.312 C 194.882 208.312 196.259 206.24 196.317 202.098 L 196.317 201.334 C 196.317 196.982 194.927 194.805 192.146 194.805 C 189.618 194.805 188.249 196.682 188.04 200.436 L 188.016 201.805 Z M 208.886 213.696 L 208.886 194.672 L 205.364 194.672 L 205.364 189.422 L 208.886 189.422 L 208.886 187.492 C 208.886 184.725 209.701 182.578 211.332 181.053 C 212.963 179.527 215.25 178.765 218.197 178.765 C 219.273 178.765 220.455 178.922 221.741 179.236 L 221.764 184.8 C 221.3 184.665 220.68 184.597 219.903 184.597 C 217.613 184.597 216.47 185.585 216.47 187.559 L 216.47 189.422 L 221.203 189.422 L 221.203 194.672 L 216.47 194.672 L 216.47 213.696 L 208.886 213.696 Z M 232.665 183.386 L 232.665 189.422 L 236.657 189.422 L 236.657 194.672 L 232.665 194.672 L 232.665 205.776 C 232.665 206.689 232.829 207.324 233.158 207.683 C 233.486 208.042 234.137 208.222 235.109 208.222 C 235.857 208.222 236.485 208.177 236.994 208.087 L 236.994 213.493 C 235.633 213.927 234.212 214.144 232.731 214.144 C 230.129 214.144 228.207 213.532 226.966 212.305 C 225.724 211.079 225.103 209.217 225.103 206.718 L 225.103 194.672 L 222.007 194.672 L 222.007 189.422 L 225.103 189.422 L 225.103 183.386 L 232.665 183.386 Z M 260.595 203.735 L 263.04 189.422 L 270.287 189.422 L 264.566 213.696 L 258.172 213.696 L 254.157 199.292 L 250.118 213.696 L 243.724 213.696 L 238.003 189.422 L 245.25 189.422 L 247.65 204.071 L 251.509 189.422 L 256.782 189.422 L 260.595 203.735 Z M 286.666 213.696 C 286.398 213.202 286.16 212.476 285.949 211.52 C 284.558 213.27 282.614 214.144 280.117 214.144 C 277.828 214.144 275.884 213.452 274.283 212.07 C 272.682 210.686 271.883 208.948 271.883 206.853 C 271.883 204.221 272.855 202.232 274.799 200.886 C 276.744 199.54 279.571 198.867 283.279 198.867 L 285.613 198.867 L 285.613 197.587 C 285.613 195.359 284.648 194.245 282.719 194.245 C 280.924 194.245 280.027 195.127 280.027 196.892 L 272.466 196.892 C 272.466 194.543 273.465 192.636 275.461 191.172 C 277.458 189.705 280.005 188.972 283.1 188.972 C 286.195 188.972 288.642 189.727 290.437 191.239 C 292.231 192.748 293.15 194.821 293.197 197.453 L 293.197 208.198 C 293.226 210.428 293.57 212.132 294.228 213.314 L 294.228 213.696 L 286.666 213.696 Z M 281.933 208.76 C 282.876 208.76 283.657 208.559 284.278 208.154 C 284.898 207.75 285.343 207.294 285.613 206.787 L 285.613 202.904 L 283.414 202.904 C 280.783 202.904 279.466 204.086 279.466 206.449 C 279.466 207.138 279.697 207.694 280.161 208.12 C 280.625 208.547 281.216 208.76 281.933 208.76 Z M 312.064 196.264 L 309.574 196.084 C 307.195 196.084 305.67 196.833 304.997 198.328 L 304.997 213.696 L 297.436 213.696 L 297.436 189.422 L 304.525 189.422 L 304.772 192.54 C 306.043 190.161 307.817 188.972 310.089 188.972 C 310.897 188.972 311.601 189.063 312.199 189.242 L 312.064 196.264 Z M 326.107 214.144 C 322.382 214.144 319.369 213.034 317.066 210.813 C 314.763 208.592 313.61 205.702 313.61 202.142 L 313.61 201.514 C 313.61 199.032 314.07 196.84 314.989 194.94 C 315.91 193.041 317.252 191.571 319.017 190.532 C 320.781 189.492 322.875 188.972 325.299 188.972 C 328.709 188.972 331.402 190.031 333.376 192.148 C 335.35 194.264 336.337 197.215 336.337 200.998 L 336.337 203.936 L 321.306 203.936 C 321.574 205.297 322.166 206.367 323.077 207.145 C 323.99 207.922 325.172 208.312 326.622 208.312 C 329.015 208.312 330.885 207.474 332.231 205.799 L 335.686 209.881 C 334.744 211.183 333.408 212.219 331.682 212.989 C 329.954 213.759 328.096 214.144 326.107 214.144 Z M 325.254 194.805 C 323.041 194.805 321.724 196.272 321.306 199.203 L 328.933 199.203 L 328.933 198.62 C 328.963 197.407 328.657 196.469 328.013 195.804 C 327.37 195.139 326.451 194.805 325.254 194.805 Z" style="fill: rgb(66, 109, 169); white-space: pre;"/>
</svg>