<?xml version="1.0" encoding="utf-8"?>
<svg viewBox="96.9 117.6 216.518 217.907" xmlns="http://www.w3.org/2000/svg">
  <rect x="73.228" y="92.207" width="270.089" height="271.234" style="fill: rgb(255, 255, 255);"/>
  <g transform="matrix(0.556362, 0, 0, 0.556362, -6.591744, 119.551216)" style="">
    <path d="M 523.845 122.229 C 523.944 111.24 519.215 103.053 509.649 97.64 L 394.093 30.713 C 384.475 25.216 374.855 25.207 365.13 30.879 L 249.826 97.447 C 240.204 103.002 235.485 111.348 235.298 122.389 L 235.512 255.91 C 235.455 266.874 240.286 275.008 249.709 280.501 L 365.233 347.447 C 374.954 353.021 384.476 352.891 394.096 347.337 L 509.398 280.769 C 519.152 275.139 523.927 266.76 524.025 255.77 L 523.845 122.229 Z M 546.371 266.89 C 546.108 279.965 540.532 289.481 529.348 295.938 L 395.922 372.969 C 384.789 379.399 373.954 379.356 362.641 372.964 L 229.173 295.978 C 218.141 289.487 212.599 279.886 212.416 266.949 L 212.451 112.825 C 212.685 100.028 218.071 90.62 229.202 84.194 L 362.628 7.159 C 373.811 0.706 384.845 0.635 396.182 6.751 L 529.522 83.868 C 540.649 90.492 546.19 100.091 546.284 112.897 L 546.371 266.89 Z" style="stroke-miterlimit: 1; paint-order: stroke; stroke-width: 6.11966px; fill: rgb(66, 109, 169);" transform="matrix(1, 0.000034, -0.000034, 1, 0.00646, -0.012899)">
      <title>hexágono</title>
    </path>
    <path d="M 259.719 180.789 L 285.262 195.847 L 285.262 134.649 L 273.121 127.781 L 273.166 99.171 L 297.415 113.075 L 297.554 203.672 L 323.155 218.776 L 323.155 157.393 L 310.815 150.722 L 311.104 121.051 L 336.111 135.211 L 337.619 226.355 L 363.063 241.623 L 363.063 120.701 L 258.309 60.068" style="stroke-miterlimit: 1; paint-order: stroke; stroke-width: 6.11966px; fill: rgb(66, 109, 169);" transform="matrix(-0.504175, -0.863601, 0.863601, -0.504175, 337.055785, 495.206909)">
      <title>E</title>
    </path>
    <path d="M 571.795 115.626 L 545.694 100.615 L 467.34 145.587 L 389.093 100.767 L 363.445 115.825 L 468.04 176.051" style="stroke-miterlimit: 1; paint-order: stroke; stroke-width: 6.11966px; fill: rgb(100, 167, 11);" transform="matrix(-0.504175, -0.863601, 0.863601, -0.504175, 583.91784, 611.91434)">
      <title>&gt;</title>
    </path>
    <path d="M 432.44 178.192 L 327.345 238.874 L 327.345 359.794 L 353.086 344.635 L 354.799 253.233 L 379.444 239.177 L 379.887 268.791 L 367.49 275.518 L 367.49 337.009 L 392.89 321.693 L 393.3 231.047 L 417.442 217.192 L 417.536 246.002 L 405.243 252.683 L 405.243 314.218 L 431.04 299.207" style="stroke-miterlimit: 1; paint-order: stroke; stroke-width: 6.11966px; fill: rgb(255, 163, 0);" transform="matrix(-0.504175, -0.863601, 0.863601, -0.504175, 339.122155, 732.6883)">
      <title>E</title>
    </path>
  </g>
</svg>